<svg width="48" height="55" viewBox="0 0 48 55" fill="none" xmlns="http://www.w3.org/2000/svg">
<path d="M44.2667 54.8906L27.4667 35.9173C26.1333 37.122 24.6 38.0756 22.8667 38.7784C21.1333 39.4811 19.2889 39.8324 17.3333 39.8324C12.4889 39.8324 8.38889 37.9376 5.03333 34.148C1.67778 30.3583 0 25.728 0 20.2568C0 14.7857 1.67778 10.1554 5.03333 6.36572C8.38889 2.57609 12.4889 0.681274 17.3333 0.681274C22.1778 0.681274 26.2778 2.57609 29.6333 6.36572C32.9889 10.1554 34.6667 14.7857 34.6667 20.2568C34.6667 22.4654 34.3556 24.5484 33.7333 26.506C33.1111 28.4635 32.2667 30.1952 31.2 31.701L48 50.6743L44.2667 54.8906ZM17.3333 33.8092C20.6667 33.8092 23.5 32.4916 25.8333 29.8564C28.1667 27.2212 29.3333 24.0214 29.3333 20.2568C29.3333 16.4923 28.1667 13.2925 25.8333 10.6573C23.5 8.02212 20.6667 6.70453 17.3333 6.70453C14 6.70453 11.1667 8.02212 8.83333 10.6573C6.5 13.2925 5.33333 16.4923 5.33333 20.2568C5.33333 24.0214 6.5 27.2212 8.83333 29.8564C11.1667 32.4916 14 33.8092 17.3333 33.8092Z" fill="#808F9B"/>
</svg>
