<svg width="160" height="156" viewBox="0 0 160 156" fill="none" xmlns="http://www.w3.org/2000/svg">
<path d="M60 112.979L116 77.9167L60 42.8542V112.979ZM80 155.833C68.9333 155.833 58.5333 153.788 48.8 149.697C39.0667 145.607 30.6 140.055 23.4 133.043C16.2 126.03 10.5 117.784 6.3 108.304C2.1 98.8243 0 88.6951 0 77.9167C0 67.1382 2.1 57.009 6.3 47.5292C10.5 38.0493 16.2 29.8031 23.4 22.7906C30.6 15.7781 39.0667 10.2266 48.8 6.13594C58.5333 2.04531 68.9333 0 80 0C91.0667 0 101.467 2.04531 111.2 6.13594C120.933 10.2266 129.4 15.7781 136.6 22.7906C143.8 29.8031 149.5 38.0493 153.7 47.5292C157.9 57.009 160 67.1382 160 77.9167C160 88.6951 157.9 98.8243 153.7 108.304C149.5 117.784 143.8 126.03 136.6 133.043C129.4 140.055 120.933 145.607 111.2 149.697C101.467 153.788 91.0667 155.833 80 155.833ZM80 140.25C97.8667 140.25 113 134.211 125.4 122.134C137.8 110.057 144 95.3181 144 77.9167C144 60.5153 137.8 45.776 125.4 33.699C113 21.6219 97.8667 15.5833 80 15.5833C62.1333 15.5833 47 21.6219 34.6 33.699C22.2 45.776 16 60.5153 16 77.9167C16 95.3181 22.2 110.057 34.6 122.134C47 134.211 62.1333 140.25 80 140.25Z" fill="white" fill-opacity="0.76"/>
</svg>
