<svg width="48" height="52" viewBox="0 0 48 52" fill="none" xmlns="http://www.w3.org/2000/svg">
<path d="M44.2667 52L27.4667 33.8C26.1333 34.9556 24.6 35.8704 22.8667 36.5444C21.1333 37.2185 19.2889 37.5556 17.3333 37.5556C12.4889 37.5556 8.38889 35.738 5.03333 32.1028C1.67778 28.4676 0 24.0259 0 18.7778C0 13.5296 1.67778 9.08796 5.03333 5.45278C8.38889 1.81759 12.4889 0 17.3333 0C22.1778 0 26.2778 1.81759 29.6333 5.45278C32.9889 9.08796 34.6667 13.5296 34.6667 18.7778C34.6667 20.8963 34.3556 22.8944 33.7333 24.7722C33.1111 26.65 32.2667 28.3111 31.2 29.7556L48 47.9556L44.2667 52ZM17.3333 31.7778C20.6667 31.7778 23.5 30.5139 25.8333 27.9861C28.1667 25.4583 29.3333 22.3889 29.3333 18.7778C29.3333 15.1667 28.1667 12.0972 25.8333 9.56944C23.5 7.04167 20.6667 5.77778 17.3333 5.77778C14 5.77778 11.1667 7.04167 8.83333 9.56944C6.5 12.0972 5.33333 15.1667 5.33333 18.7778C5.33333 22.3889 6.5 25.4583 8.83333 27.9861C11.1667 30.5139 14 31.7778 17.3333 31.7778Z" fill="#808F9B"/>
</svg>
