<svg width="160" height="170" viewBox="0 0 160 170" fill="none" xmlns="http://www.w3.org/2000/svg">
<path d="M60 122.634L116 84.6201L60 46.6059V122.634ZM80 169.096C68.9333 169.096 58.5333 166.879 48.8 162.444C39.0667 158.009 30.6 151.99 23.4 144.387C16.2 136.784 10.5 127.844 6.3 117.566C2.1 107.288 0 96.306 0 84.6201C0 72.9342 2.1 61.9524 6.3 51.6744C10.5 41.3965 16.2 32.4561 23.4 24.8533C30.6 17.2504 39.0667 11.2315 48.8 6.79648C58.5333 2.36148 68.9333 0.143982 80 0.143982C91.0667 0.143982 101.467 2.36148 111.2 6.79648C120.933 11.2315 129.4 17.2504 136.6 24.8533C143.8 32.4561 149.5 41.3965 153.7 51.6744C157.9 61.9524 160 72.9342 160 84.6201C160 96.306 157.9 107.288 153.7 117.566C149.5 127.844 143.8 136.784 136.6 144.387C129.4 151.99 120.933 158.009 111.2 162.444C101.467 166.879 91.0667 169.096 80 169.096ZM80 152.201C97.8667 152.201 113 145.654 125.4 132.56C137.8 119.467 144 103.486 144 84.6201C144 65.7538 137.8 49.7737 125.4 36.6799C113 23.5861 97.8667 17.0392 80 17.0392C62.1333 17.0392 47 23.5861 34.6 36.6799C22.2 49.7737 16 65.7538 16 84.6201C16 103.486 22.2 119.467 34.6 132.56C47 145.654 62.1333 152.201 80 152.201Z" fill="white" fill-opacity="0.76"/>
</svg>
