<svg width="48" height="50" viewBox="0 0 48 50" fill="none" xmlns="http://www.w3.org/2000/svg">
<path d="M44.2667 50L27.4667 32.5C26.1333 33.6111 24.6 34.4907 22.8667 35.1389C21.1333 35.787 19.2889 36.1111 17.3333 36.1111C12.4889 36.1111 8.38889 34.3634 5.03333 30.8681C1.67778 27.3727 0 23.1019 0 18.0556C0 13.0093 1.67778 8.73843 5.03333 5.24306C8.38889 1.74768 12.4889 0 17.3333 0C22.1778 0 26.2778 1.74768 29.6333 5.24306C32.9889 8.73843 34.6667 13.0093 34.6667 18.0556C34.6667 20.0926 34.3556 22.0139 33.7333 23.8194C33.1111 25.625 32.2667 27.2222 31.2 28.6111L48 46.1111L44.2667 50ZM17.3333 30.5556C20.6667 30.5556 23.5 29.3403 25.8333 26.9097C28.1667 24.4792 29.3333 21.5278 29.3333 18.0556C29.3333 14.5833 28.1667 11.6319 25.8333 9.20139C23.5 6.77083 20.6667 5.55556 17.3333 5.55556C14 5.55556 11.1667 6.77083 8.83333 9.20139C6.5 11.6319 5.33333 14.5833 5.33333 18.0556C5.33333 21.5278 6.5 24.4792 8.83333 26.9097C11.1667 29.3403 14 30.5556 17.3333 30.5556Z" fill="#808F9B"/>
</svg>
