<svg width="57" height="61" viewBox="0 0 57 61" fill="none" xmlns="http://www.w3.org/2000/svg">
<path d="M0 5.53199C0 4.21546 0.375334 2.95285 1.04343 2.02192C1.71153 1.09099 2.61767 0.567993 3.5625 0.567993H53.4375C54.3823 0.567993 55.2885 1.09099 55.9566 2.02192C56.6247 2.95285 57 4.21546 57 5.53199C57 6.84853 56.6247 8.11114 55.9566 9.04207C55.2885 9.973 54.3823 10.496 53.4375 10.496H3.5625C2.61767 10.496 1.71153 9.973 1.04343 9.04207C0.375334 8.11114 0 6.84853 0 5.53199ZM0 30.352C0 29.0355 0.375334 27.7728 1.04343 26.8419C1.71153 25.911 2.61767 25.388 3.5625 25.388H53.4375C54.3823 25.388 55.2885 25.911 55.9566 26.8419C56.6247 27.7728 57 29.0355 57 30.352C57 31.6685 56.6247 32.9311 55.9566 33.8621C55.2885 34.793 54.3823 35.316 53.4375 35.316H3.5625C2.61767 35.316 1.71153 34.793 1.04343 33.8621C0.375334 32.9311 0 31.6685 0 30.352ZM0 55.172C0 53.8555 0.375334 52.5928 1.04343 51.6619C1.71153 50.731 2.61767 50.208 3.5625 50.208H53.4375C54.3823 50.208 55.2885 50.731 55.9566 51.6619C56.6247 52.5928 57 53.8555 57 55.172C57 56.4885 56.6247 57.7511 55.9566 58.6821C55.2885 59.613 54.3823 60.136 53.4375 60.136H3.5625C2.61767 60.136 1.71153 59.613 1.04343 58.6821C0.375334 57.7511 0 56.4885 0 55.172Z" fill="#0D0D0D"></path>
</svg>
