<svg width="160" height="169" viewBox="0 0 160 169" fill="none" xmlns="http://www.w3.org/2000/svg">
<path d="M60 122.49L116 84.4761L60 46.4619V122.49ZM80 168.952C68.9333 168.952 58.5333 166.735 48.8 162.3C39.0667 157.865 30.6 151.846 23.4 144.243C16.2 136.64 10.5 127.7 6.3 117.422C2.1 107.144 0 96.162 0 84.4761C0 72.7903 2.1 61.8084 6.3 51.5304C10.5 41.2525 16.2 32.3121 23.4 24.7093C30.6 17.1064 39.0667 11.0875 48.8 6.6525C58.5333 2.2175 68.9333 0 80 0C91.0667 0 101.467 2.2175 111.2 6.6525C120.933 11.0875 129.4 17.1064 136.6 24.7093C143.8 32.3121 149.5 41.2525 153.7 51.5304C157.9 61.8084 160 72.7903 160 84.4761C160 96.162 157.9 107.144 153.7 117.422C149.5 127.7 143.8 136.64 136.6 144.243C129.4 151.846 120.933 157.865 111.2 162.3C101.467 166.735 91.0667 168.952 80 168.952ZM80 152.057C97.8667 152.057 113 145.51 125.4 132.416C137.8 119.323 144 103.342 144 84.4761C144 65.6098 137.8 49.6297 125.4 36.5359C113 23.4421 97.8667 16.8952 80 16.8952C62.1333 16.8952 47 23.4421 34.6 36.5359C22.2 49.6297 16 65.6098 16 84.4761C16 103.342 22.2 119.323 34.6 132.416C47 145.51 62.1333 152.057 80 152.057Z" fill="white" fill-opacity="0.76"></path>
</svg>
