<svg width="40" height="46" viewBox="0 0 40 46" fill="none" xmlns="http://www.w3.org/2000/svg">
<path d="M36.8889 46L22.8889 29.9C21.7778 30.9222 20.5 31.7315 19.0556 32.3278C17.6111 32.9241 16.0741 33.2222 14.4444 33.2222C10.4074 33.2222 6.99074 31.6144 4.19444 28.3986C1.39815 25.1829 0 21.2537 0 16.6111C0 11.9685 1.39815 8.03935 4.19444 4.82361C6.99074 1.60787 10.4074 0 14.4444 0C18.4815 0 21.8981 1.60787 24.6944 4.82361C27.4907 8.03935 28.8889 11.9685 28.8889 16.6111C28.8889 18.4852 28.6296 20.2528 28.1111 21.9139C27.5926 23.575 26.8889 25.0444 26 26.3222L40 42.4222L36.8889 46ZM14.4444 28.1111C17.2222 28.1111 19.5833 26.9931 21.5278 24.7569C23.4722 22.5208 24.4444 19.8056 24.4444 16.6111C24.4444 13.4167 23.4722 10.7014 21.5278 8.46528C19.5833 6.22917 17.2222 5.11111 14.4444 5.11111C11.6667 5.11111 9.30556 6.22917 7.36111 8.46528C5.41667 10.7014 4.44444 13.4167 4.44444 16.6111C4.44444 19.8056 5.41667 22.5208 7.36111 24.7569C9.30556 26.9931 11.6667 28.1111 14.4444 28.1111Z" fill="#808F9B"></path>
</svg>
