<svg width="50" height="48" viewBox="0 0 50 48" fill="none" xmlns="http://www.w3.org/2000/svg">
<path d="M46.1111 48L28.6111 31.2C27.2222 32.2667 25.625 33.1111 23.8194 33.7333C22.0139 34.3556 20.0926 34.6667 18.0556 34.6667C13.0093 34.6667 8.73843 32.9889 5.24306 29.6333C1.74769 26.2778 0 22.1778 0 17.3333C0 12.4889 1.74769 8.38889 5.24306 5.03333C8.73843 1.67778 13.0093 0 18.0556 0C23.1019 0 27.3727 1.67778 30.8681 5.03333C34.3634 8.38889 36.1111 12.4889 36.1111 17.3333C36.1111 19.2889 35.787 21.1333 35.1389 22.8667C34.4907 24.6 33.6111 26.1333 32.5 27.4667L50 44.2667L46.1111 48ZM18.0556 29.3333C21.5278 29.3333 24.4792 28.1667 26.9097 25.8333C29.3403 23.5 30.5556 20.6667 30.5556 17.3333C30.5556 14 29.3403 11.1667 26.9097 8.83333C24.4792 6.5 21.5278 5.33333 18.0556 5.33333C14.5833 5.33333 11.6319 6.5 9.20139 8.83333C6.77083 11.1667 5.55556 14 5.55556 17.3333C5.55556 20.6667 6.77083 23.5 9.20139 25.8333C11.6319 28.1667 14.5833 29.3333 18.0556 29.3333Z" fill="#808F9B"></path>
</svg>
